<svg width="275" height="28" viewBox="0 0 275 28" fill="none" xmlns="http://www.w3.org/2000/svg">
<path d="M13.2812 17.2071H5.66841L3.99498 21.2977H0L8.13339 1.81152H11.0234L18.9283 21.2977H14.9652L13.2812 17.2071ZM12.2187 14.1099L9.52526 7.09743L6.83715 14.1099H12.2187Z" fill="#231916"/>
<path d="M20.1183 7.9103H23.683V9.94497C24.0286 9.18181 24.5806 8.53044 25.2767 8.06436C25.9092 7.65746 26.6501 7.45186 27.4017 7.47467C27.9236 7.48115 28.4393 7.58755 28.9211 7.78811L28.4483 11.3475C27.9689 10.9929 27.3809 10.8163 26.7855 10.8481C26.3325 10.8275 25.8813 10.9162 25.4699 11.1067C25.0584 11.2971 24.6988 11.5838 24.4214 11.9425C23.7468 12.8509 23.7202 14.009 23.7202 14.944V21.4465H20.1183V7.9103Z" fill="#231916"/>
<path d="M34.7807 11.6874V21.2977H31.2214V11.6874H29.8136V8.64869H31.2214V4.32434H34.7807V8.64869H37.2351V11.6874H34.7807Z" fill="#231916"/>
<path d="M54.83 5.08401V21.2977H50.2719V5.08401H45.0126V1.81152H60.0894V5.08401H54.83Z" fill="#231916"/>
<path d="M70.5018 10.0193C71.1688 10.6614 71.6968 11.4335 72.0532 12.2879C72.4095 13.1423 72.5867 14.0608 72.5737 14.9865C72.5849 15.9072 72.4067 16.8203 72.0503 17.6693C71.6939 18.5183 71.1668 19.285 70.5018 19.9218C69.1066 21.0753 67.3529 21.7064 65.5426 21.7064C63.7323 21.7064 61.9786 21.0753 60.5834 19.9218C59.9201 19.2839 59.3946 18.5169 59.0391 17.6681C58.6837 16.8193 58.506 15.9066 58.5169 14.9865C58.5014 14.0629 58.6748 13.1458 59.0265 12.2917C59.3782 11.4375 59.9008 10.6642 60.5622 10.0193C61.9587 8.86867 63.7119 8.23944 65.5214 8.23944C67.3309 8.23944 69.0841 8.86867 70.4806 10.0193H70.5018ZM69.0037 14.9865C69.0298 14.5169 68.9598 14.0469 68.798 13.6053C68.6362 13.1637 68.3861 12.7598 68.0629 12.4181C67.7397 12.0765 67.3502 11.8043 66.9182 11.6184C66.4863 11.4324 66.0209 11.3364 65.5506 11.3364C65.0803 11.3364 64.6149 11.4324 64.183 11.6184C63.751 11.8043 63.3615 12.0765 63.0383 12.4181C62.7151 12.7598 62.4649 13.1637 62.3032 13.6053C62.1414 14.0469 62.0714 14.5169 62.0975 14.9865C62.0714 15.4561 62.1414 15.926 62.3032 16.3676C62.4649 16.8092 62.7151 17.2132 63.0383 17.5549C63.3615 17.8965 63.751 18.1686 64.183 18.3546C64.6149 18.5406 65.0803 18.6365 65.5506 18.6365C66.0209 18.6365 66.4863 18.5406 66.9182 18.3546C67.3502 18.1686 67.7397 17.8965 68.0629 17.5549C68.3861 17.2132 68.6362 16.8092 68.798 16.3676C68.9598 15.926 69.0298 15.4561 69.0037 14.9865Z" fill="#231916"/>
<path d="M77.7215 0V13.2812L82.4549 8.66464H87.0661L81.1374 14.2002L87.5389 21.2977H82.8055L78.0933 15.8949L77.7162 16.2455V21.2977H74.1515V0H77.7215Z" fill="#231916"/>
<path d="M93.4995 19.3958L87.4805 8.64868H91.6295L95.5448 15.8365L99.051 8.64868H103.062L92.862 27.9861H88.8298L93.4995 19.3958Z" fill="#231916"/>
<path d="M114.978 10.0193C115.645 10.6614 116.173 11.4335 116.529 12.2879C116.886 13.1423 117.063 14.0608 117.05 14.9865C117.061 15.9072 116.883 16.8203 116.526 17.6693C116.17 18.5183 115.643 19.285 114.978 19.9218C113.583 21.0753 111.829 21.7064 110.019 21.7064C108.208 21.7064 106.455 21.0753 105.059 19.9218C104.396 19.2839 103.871 18.5169 103.515 17.6681C103.16 16.8193 102.982 15.9066 102.993 14.9865C102.98 14.0613 103.157 13.1434 103.512 12.2891C103.868 11.4349 104.394 10.6624 105.059 10.0193C106.456 8.86867 108.209 8.23944 110.019 8.23944C111.828 8.23944 113.581 8.86867 114.978 10.0193ZM113.48 14.9865C113.506 14.5169 113.436 14.0469 113.274 13.6053C113.112 13.1637 112.862 12.7598 112.539 12.4181C112.216 12.0765 111.826 11.8043 111.394 11.6184C110.962 11.4324 110.497 11.3364 110.027 11.3364C109.556 11.3364 109.091 11.4324 108.659 11.6184C108.227 11.8043 107.838 12.0765 107.514 12.4181C107.191 12.7598 106.941 13.1637 106.779 13.6053C106.617 14.0469 106.547 14.5169 106.574 14.9865C106.547 15.4561 106.617 15.926 106.779 16.3676C106.941 16.8092 107.191 17.2132 107.514 17.5549C107.838 17.8965 108.227 18.1686 108.659 18.3546C109.091 18.5406 109.556 18.6365 110.027 18.6365C110.497 18.6365 110.962 18.5406 111.394 18.3546C111.826 18.1686 112.216 17.8965 112.539 17.5549C112.862 17.2132 113.112 16.8092 113.274 16.3676C113.436 15.926 113.506 15.4561 113.48 14.9865Z" fill="#231916"/>
<path d="M136.371 10.8693H144.871V11.1031C144.871 12.4153 144.706 16.5059 142.151 19.1674C140.239 21.1808 137.901 21.7333 135.574 21.7333C133.247 21.7333 130.873 21.2499 128.849 19.1249C128.206 18.4555 126.097 16.0012 126.097 11.6184C126.019 8.93983 126.995 6.33765 128.817 4.37218C129.755 3.38943 130.89 2.61593 132.148 2.10233C133.406 1.58874 134.758 1.34664 136.116 1.39189C137.598 1.3602 139.062 1.71348 140.366 2.41719C141.837 3.25267 143.04 4.48891 143.835 5.98186L140.701 7.76154C140.238 6.7849 139.48 5.9784 138.533 5.45593C137.724 5.05009 136.831 4.83907 135.925 4.83968C134.337 4.83792 132.812 5.45763 131.675 6.56623C130.425 7.98209 129.76 9.82063 129.816 11.7087C129.777 12.6115 129.919 13.5129 130.232 14.3603C130.546 15.2077 131.026 15.984 131.643 16.644C132.176 17.1892 132.816 17.6187 133.523 17.9057C134.229 18.1927 134.987 18.331 135.75 18.3121C137.058 18.3325 138.337 17.9218 139.389 17.1434C140.293 16.3773 140.909 15.3262 141.136 14.1631H136.355L136.371 10.8693Z" fill="#231916"/>
<path d="M150.231 0V21.2977H146.667V0H150.231Z" fill="#231916"/>
<path d="M164.352 10.0193C165.017 10.6624 165.544 11.4349 165.899 12.2891C166.254 13.1434 166.431 14.0613 166.418 14.9865C166.429 15.9066 166.252 16.8193 165.896 17.6681C165.541 18.5169 165.015 19.2839 164.352 19.9218C162.957 21.0753 161.203 21.7064 159.393 21.7064C157.582 21.7064 155.829 21.0753 154.434 19.9218C153.769 19.285 153.241 18.5183 152.885 17.6693C152.529 16.8203 152.351 15.9072 152.362 14.9865C152.349 14.0608 152.526 13.1423 152.882 12.2879C153.239 11.4335 153.767 10.6614 154.434 10.0193C155.83 8.86867 157.583 8.23944 159.393 8.23944C161.202 8.23944 162.955 8.86867 164.352 10.0193ZM162.849 14.9865C162.875 14.5169 162.805 14.0469 162.643 13.6053C162.481 13.1637 162.231 12.7598 161.908 12.4181C161.584 12.0765 161.195 11.8043 160.763 11.6184C160.331 11.4324 159.866 11.3364 159.395 11.3364C158.925 11.3364 158.46 11.4324 158.028 11.6184C157.596 11.8043 157.206 12.0765 156.883 12.4181C156.56 12.7598 156.31 13.1637 156.148 13.6053C155.986 14.0469 155.916 14.5169 155.942 14.9865C155.916 15.4561 155.986 15.926 156.148 16.3676C156.31 16.8092 156.56 17.2132 156.883 17.5549C157.206 17.8965 157.596 18.1686 158.028 18.3546C158.46 18.5406 158.925 18.6365 159.395 18.6365C159.866 18.6365 160.331 18.5406 160.763 18.3546C161.195 18.1686 161.584 17.8965 161.908 17.5549C162.231 17.2132 162.481 16.8092 162.643 16.3676C162.805 15.926 162.875 15.4561 162.849 14.9865Z" fill="#231916"/>
<path d="M171.593 10.2849C172.061 9.63344 172.681 9.10641 173.4 8.74989C174.118 8.39336 174.913 8.21818 175.715 8.23964C179.434 8.23964 181.936 11.1296 181.936 14.9599C181.936 18.7902 179.365 21.7068 175.625 21.7068C174.836 21.7244 174.055 21.5463 173.351 21.1885C172.647 20.8307 172.043 20.3042 171.593 19.6561V21.2924H168.028V0H171.593V10.2849ZM171.242 14.9599C171.242 15.8898 171.612 16.7817 172.269 17.4392C172.927 18.0967 173.819 18.4662 174.748 18.4662C175.678 18.4662 176.57 18.0967 177.228 17.4392C177.885 16.7817 178.255 15.8898 178.255 14.9599C178.255 14.03 177.885 13.1382 177.228 12.4806C176.57 11.8231 175.678 11.4537 174.748 11.4537C173.819 11.4537 172.927 11.8231 172.269 12.4806C171.612 13.1382 171.242 14.03 171.242 14.9599Z" fill="#231916"/>
<path d="M193.772 8.64871H197.337V21.2977H193.772V19.6561C193.351 20.2974 192.773 20.8213 192.094 21.179C191.415 21.5367 190.656 21.7164 189.889 21.7014C186 21.7014 183.429 18.6627 183.429 14.9546C183.429 11.2465 185.974 8.23433 189.714 8.23433C190.51 8.19252 191.303 8.35921 192.015 8.71793C192.727 9.07664 193.332 9.61496 193.772 10.2796V8.64871ZM187.111 14.9599C187.111 15.4204 187.201 15.8763 187.377 16.3017C187.554 16.7271 187.812 17.1136 188.138 17.4392C188.463 17.7648 188.85 18.0231 189.275 18.1993C189.7 18.3755 190.156 18.4662 190.617 18.4662C191.077 18.4662 191.533 18.3755 191.959 18.1993C192.384 18.0231 192.77 17.7648 193.096 17.4392C193.422 17.1136 193.68 16.7271 193.856 16.3017C194.032 15.8763 194.123 15.4204 194.123 14.9599C194.123 14.4995 194.032 14.0435 193.856 13.6181C193.68 13.1928 193.422 12.8062 193.096 12.4806C192.77 12.1551 192.384 11.8968 191.959 11.7206C191.533 11.5444 191.077 11.4537 190.617 11.4537C190.156 11.4537 189.7 11.5444 189.275 11.7206C188.85 11.8968 188.463 12.1551 188.138 12.4806C187.812 12.8062 187.554 13.1928 187.377 13.6181C187.201 14.0435 187.111 14.4995 187.111 14.9599Z" fill="#231916"/>
<path d="M203.707 0V21.2977H200.142V0H203.707Z" fill="#231916"/>
<path d="M247.821 6.4387C247.517 5.94817 247.093 5.54398 246.587 5.26491C246.082 4.98583 245.514 4.84122 244.937 4.84496C243.088 4.84496 242.504 6.08276 242.504 7.03901C242.493 7.27601 242.534 7.51252 242.626 7.73126C242.718 7.95 242.858 8.14546 243.035 8.30338C243.455 8.72838 244.039 8.9515 245.16 9.36587C246.536 9.87056 247.816 10.3806 248.735 11.2518C249.245 11.7694 249.642 12.3867 249.901 13.0651C250.161 13.7434 250.278 14.4681 250.244 15.1937C250.244 18.8539 247.752 21.3561 244.103 21.3561C242.869 21.3371 241.661 21.0012 240.595 20.3807C239.529 19.7601 238.64 18.8758 238.015 17.8127L240.262 15.5283C240.574 16.2607 241.09 16.8871 241.75 17.3321C242.41 17.777 243.185 18.0214 243.981 18.0358C244.334 18.0619 244.689 18.0137 245.022 17.8944C245.356 17.7751 245.661 17.5874 245.917 17.3432C246.174 17.099 246.377 16.8039 246.513 16.4767C246.648 16.1495 246.714 15.7975 246.706 15.4433C246.715 15.1297 246.658 14.8176 246.54 14.5268C246.422 14.236 246.245 13.9728 246.021 13.754C245.357 13.1112 244.299 12.7446 243.29 12.378C242.211 12.0358 241.211 11.4793 240.352 10.7418C239.88 10.2963 239.509 9.75348 239.267 9.15084C239.025 8.5482 238.917 7.90014 238.95 7.25151C238.95 4.49434 240.697 1.73716 244.613 1.73716C245.556 1.72213 246.49 1.91031 247.354 2.28891C248.218 2.66751 248.989 3.22764 249.617 3.93121L247.821 6.4387Z" fill="#231916"/>
<path d="M261.055 10.8852H268.28V11.1084C268.28 12.378 268.136 16.3199 265.958 18.8805C265.277 19.6966 264.418 20.3445 263.445 20.7739C262.473 21.2033 261.415 21.4025 260.354 21.3561C259.268 21.4106 258.185 21.2097 257.191 20.7696C256.198 20.3295 255.321 19.6625 254.632 18.8221C254.101 18.174 252.289 15.8099 252.289 11.5865C252.289 7.95807 253.66 5.74277 254.606 4.6059C255.358 3.68392 256.311 2.94612 257.392 2.44891C258.473 1.95171 259.653 1.70825 260.842 1.73717C262.127 1.70597 263.392 2.04732 264.487 2.71998C265.775 3.56535 266.798 4.75661 267.44 6.15714L264.784 7.87307C264.416 6.95761 263.772 6.1796 262.941 5.64715C262.264 5.26174 261.499 5.05855 260.72 5.05746C260.03 5.06114 259.348 5.21126 258.72 5.49789C258.091 5.78452 257.531 6.20115 257.076 6.72027C255.991 8.13845 255.428 9.88696 255.482 11.6715C255.482 14.179 256.38 15.6718 257.039 16.4527C257.467 16.9615 258.004 17.3684 258.609 17.6441C259.215 17.9197 259.874 18.0572 260.54 18.0465C261.676 18.0573 262.777 17.6574 263.642 16.9202C264.43 16.1441 264.951 15.1376 265.13 14.0462H261.055V10.8852Z" fill="#231916"/>
<path d="M272.668 16.9096C273.107 16.883 273.544 16.9887 273.922 17.213C274.3 17.4372 274.603 17.7698 274.79 18.1676C274.978 18.5655 275.042 19.0104 274.974 19.4449C274.906 19.8795 274.709 20.2836 274.409 20.6052C274.109 20.9268 273.719 21.1511 273.291 21.249C272.862 21.347 272.414 21.3142 272.004 21.1548C271.594 20.9955 271.241 20.7169 270.991 20.355C270.741 19.9932 270.605 19.5647 270.601 19.1249C270.589 18.8432 270.633 18.5619 270.731 18.2974C270.829 18.0329 270.978 17.7905 271.171 17.5843C271.363 17.3781 271.594 17.2123 271.851 17.0964C272.108 16.9806 272.386 16.9171 272.668 16.9096Z" fill="#231916"/>
<path d="M230.274 1.71063H210.698V21.2871H230.274V1.71063Z" fill="#DE2F39"/>
<path d="M211.452 20.6602L220.537 4.98307L229.52 2.88464L211.452 20.6602Z" fill="white"/>
</svg>
